<svg width="16" height="20" viewBox="0 0 16 20" fill="none" xmlns="http://www.w3.org/2000/svg">
<path d="M8 14C9.30585 14 10.4141 14.8353 10.8262 16H13C13.5523 16 14 15.5523 14 15V13.8252C13.6869 13.936 13.3511 14 13 14C11.3431 14 10 12.6569 10 11V10C10 8.34315 11.3431 7 13 7H14C14 4.23858 11.7614 2 9 2H7C4.23857 2 2 4.23857 2 7H3C4.65685 7 6 8.34315 6 10V11C6 12.6569 4.65685 14 3 14C1.34315 14 0 12.6569 0 11V7C0 3.13401 3.13401 0 7 0H9C12.866 0 16 3.134 16 7V15C16 16.6569 14.6569 18 13 18H10.8262C10.4141 19.1647 9.30585 20 8 20C6.34315 20 5 18.6569 5 17C5 15.3431 6.34315 14 8 14ZM4 10C4 9.44771 3.55229 9 3 9H2V11C2 11.5523 2.44771 12 3 12C3.55229 12 4 11.5523 4 11V10ZM7 17C7 17.5523 7.4477 18 8 18C8.5523 18 9 17.5523 9 17C9 16.4477 8.5523 16 8 16C7.4477 16 7 16.4477 7 17ZM12 11C12 11.5523 12.4477 12 13 12C13.5523 12 14 11.5523 14 11V9H13C12.4477 9 12 9.44771 12 10V11Z" fill="white"/>
</svg>
