<svg width="20" height="18" viewBox="0 0 20 18" fill="none" xmlns="http://www.w3.org/2000/svg">
<path d="M15 0C15.3788 0 15.7251 0.213974 15.8945 0.552734L19.8945 8.55273C20.0353 8.83426 20.0353 9.16574 19.8945 9.44727L15.8945 17.4473C15.7251 17.786 15.3788 18 15 18H5C4.62127 18 4.27485 17.786 4.10547 17.4473L0.105469 9.44727C-0.0352673 9.16576 -0.0352672 8.83424 0.105469 8.55273L4.10547 0.552734L4.17676 0.431641C4.36167 0.163703 4.66858 3.42168e-05 5 0H15ZM2.11816 9L5.61816 16H14.3818L17.8818 9L14.3818 2H5.61816L2.11816 9ZM10 5C12.2092 5 14 6.79088 14 9C14 11.2092 12.2092 13 10 13C7.79088 13 6 11.2092 6 9C6 6.79087 7.79087 5 10 5ZM10 7C8.89543 7 8 7.89543 8 9C8 10.1046 8.89542 11 10 11C11.1046 11 12 10.1046 12 9C12 7.89542 11.1046 7 10 7Z" fill="white"/>
</svg>
