<svg width="20" height="20" viewBox="0 0 20 20" fill="none" xmlns="http://www.w3.org/2000/svg">
<path d="M18 11C18 10.4477 17.5523 10 17 10H3C2.44771 10 2 10.4477 2 11V17C2 17.5523 2.44771 18 3 18H17C17.5523 18 18 17.5523 18 17V11ZM7 14C7 13.4477 6.5523 13 6 13C5.4477 13 5 13.4477 5 14C5 14.5523 5.4477 15 6 15C6.5523 15 7 14.5523 7 14ZM15 14C15 13.4477 14.5523 13 14 13C13.4477 13 13 13.4477 13 14C13 14.5523 13.4477 15 14 15C14.5523 15 15 14.5523 15 14ZM9 14C9 15.6569 7.65685 17 6 17C4.34315 17 3 15.6569 3 14C3 12.3431 4.34315 11 6 11C7.65685 11 9 12.3431 9 14ZM17 14C17 15.6569 15.6569 17 14 17C12.3431 17 11 15.6569 11 14C11 12.3431 12.3431 11 14 11C15.6569 11 17 12.3431 17 14ZM11 3C11 2.44771 10.5523 2 10 2C9.44771 2 9 2.44771 9 3C9 3.55229 9.44771 4 10 4C10.5523 4 11 3.55229 11 3ZM13 3C13 4.30574 12.1645 5.413 11 5.8252V8H17C18.6569 8 20 9.34315 20 11V17C20 18.6569 18.6569 20 17 20H3C1.34315 20 0 18.6569 0 17V11C0 9.34315 1.34315 8 3 8H9V5.8252C7.83548 5.413 7 4.30574 7 3C7 1.34315 8.34315 0 10 0C11.6569 0 13 1.34315 13 3Z" fill="white"/>
</svg>
