<svg width="18" height="20" viewBox="0 0 18 20" fill="none" xmlns="http://www.w3.org/2000/svg">
<path d="M16 3C16 2.44771 15.5523 2 15 2H3C2.44771 2 2 2.44771 2 3V17C2 17.5523 2.44771 18 3 18H10V15C10 13.3431 11.3431 12 13 12H16V3ZM8 12C8.55228 12 9 12.4477 9 13C9 13.5523 8.55228 14 8 14H5C4.44772 14 4 13.5523 4 13C4 12.4477 4.44772 12 5 12H8ZM11 8C11.5523 8 12 8.44772 12 9C12 9.55229 11.5523 10 11 10H5C4.44772 10 4 9.55229 4 9C4 8.44772 4.44772 8 5 8H11ZM13 4C13.5523 4 14 4.44772 14 5C14 5.55228 13.5523 6 13 6H5C4.44772 6 4 5.55228 4 5C4 4.44772 4.44772 4 5 4H13ZM12 16.5859L14.5859 14H13C12.4477 14 12 14.4477 12 15V16.5859ZM18 13C18 13.2652 17.8946 13.5195 17.707 13.707L11.707 19.707C11.5195 19.8946 11.2652 20 11 20H3C1.34315 20 0 18.6569 0 17V3C0 1.34315 1.34315 0 3 0H15C16.6569 0 18 1.34315 18 3V13Z" fill="white"/>
</svg>
