<svg width="19" height="20" viewBox="0 0 19 20" fill="none" xmlns="http://www.w3.org/2000/svg">
<path d="M11.9893 0.00488281C12.1953 0.0253246 12.3894 0.115969 12.5371 0.263672L16.5371 4.26367C16.7059 4.43245 16.8008 4.6617 16.8008 4.90039V12.2822L17.2275 11.8027C17.5577 11.4313 18.1265 11.3975 18.498 11.7275C18.8694 12.0577 18.9032 12.6266 18.5732 12.998L16.8008 14.9912V18.9004C16.8008 19.3974 16.3974 19.8008 15.9004 19.8008H2.90039C1.30333 19.8008 0 18.4974 0 16.9004V2.90039C0 1.30333 1.30333 0 2.90039 0H11.9004L11.9893 0.00488281ZM2.90039 1.80078C2.29745 1.80078 1.80078 2.29745 1.80078 2.90039V16.9004C1.80078 17.5033 2.29745 18 2.90039 18H15V17.0176L14.5732 17.498C14.4086 17.6833 14.1745 17.7925 13.9268 17.7998C13.679 17.8071 13.4389 17.7123 13.2637 17.5371L11.2637 15.5371C10.9122 15.1856 10.9122 14.6151 11.2637 14.2637C11.6151 13.9122 12.1856 13.9122 12.5371 14.2637L13.8613 15.5879L15 14.3066V6.80078H10V1.80078H2.90039ZM8.90039 11C9.39745 11 9.80078 11.4033 9.80078 11.9004C9.80078 12.3974 9.39745 12.8008 8.90039 12.8008H4.90039C4.40333 12.8008 4 12.3974 4 11.9004C4 11.4033 4.40333 11 4.90039 11H8.90039ZM11.9004 8C12.3974 8 12.8008 8.40333 12.8008 8.90039C12.8008 9.39745 12.3974 9.80078 11.9004 9.80078H4.90039C4.40333 9.80078 4 9.39745 4 8.90039C4 8.40333 4.40333 8 4.90039 8H11.9004ZM11.8008 5H14.7266L11.8008 2.07422V5Z" fill="white"/>
</svg>
