<svg width="20" height="20" viewBox="0 0 20 20" fill="none" xmlns="http://www.w3.org/2000/svg">
<path d="M17.9219 4.27295C18.4187 4.27321 18.8223 4.67645 18.8223 5.17334L18.8242 17.9995H18.9004C19.3973 17.9995 19.8006 18.403 19.8008 18.8999C19.8008 19.397 19.3974 19.8003 18.9004 19.8003H0.900391C0.403334 19.8003 0 19.397 0 18.8999C0.000161955 18.403 0.403434 17.9995 0.900391 17.9995H1.02344L1.02148 13.1733C1.02148 12.6763 1.42482 12.2729 1.92188 12.2729H5.92188C6.41871 12.2732 6.82227 12.6764 6.82227 13.1733L6.82422 17.9995H7.02344L7.02148 9.17334C7.02148 8.67628 7.42482 8.27295 7.92188 8.27295H11.9219C12.4187 8.27321 12.8223 8.67645 12.8223 9.17334L12.8242 17.9995H13.0234L13.0215 5.17334C13.0215 4.67628 13.4248 4.27295 13.9219 4.27295H17.9219ZM2.82422 17.9995H5.02246L5.02051 14.0737H2.82227L2.82422 17.9995ZM8.82422 17.9995H11.0234L11.0215 10.0737H8.82227L8.82422 17.9995ZM14.8242 17.9995H17.0234L17.0205 6.07373H14.8223L14.8242 17.9995ZM13.3848 0.161621C13.6837 -0.0473401 14.0871 -0.057119 14.3994 0.150879L17.3994 2.15088C17.8128 2.4265 17.9248 2.98539 17.6494 3.39893C17.3737 3.81243 16.8149 3.92445 16.4014 3.64893L14.0146 2.05811L9.53711 6.53662C9.23382 6.83992 8.7583 6.88673 8.40137 6.64893L6.01465 5.05811L3.53711 7.53662C3.18564 7.88809 2.61514 7.88809 2.26367 7.53662C1.91235 7.18514 1.91225 6.61461 2.26367 6.26318L5.26367 3.26318C5.56693 2.96006 6.04255 2.91322 6.39941 3.15088L8.78516 4.74072L13.2637 0.263184L13.3848 0.161621Z" fill="white"/>
</svg>
