<svg width="30" height="23" viewBox="0 0 30 23" fill="none" xmlns="http://www.w3.org/2000/svg">
<path d="M29.4213 12.5867L19.6273 22.42C19.3127 22.7347 18.9193 22.892 18.526 22.892C18.1327 22.892 17.7393 22.7347 17.4247 22.42C16.7953 21.7907 16.7953 20.8073 17.4247 20.178L24.544 13.0193H1.57333C0.708 13.0193 0 12.3113 0 11.446C0 10.5807 0.708 9.87266 1.57333 9.87266H24.544L17.4247 2.714C16.7953 2.08467 16.7953 1.10133 17.4247 0.472C18.054 -0.157333 19.0373 -0.157333 19.6667 0.472L29.4607 10.3053C30.0507 10.974 30.0507 11.9967 29.4213 12.5867Z" fill="#F9F9F9"/>
</svg>
