<svg width="16" height="20" viewBox="0 0 16 20" fill="none" xmlns="http://www.w3.org/2000/svg">
<path d="M10 17C10 18.1046 9.10457 19 8 19C6.89543 19 6 18.1046 6 17C6 15.8954 6.89543 15 8 15C9.10457 15 10 15.8954 10 17ZM10 17H13C14.1046 17 15 16.1046 15 15V11M15 11V8H13C11.8954 8 11 8.89543 11 10V11C11 12.1046 11.8954 13 13 13C14.1046 13 15 12.1046 15 11ZM1 9V7C1 3.68629 3.68629 1 7 1H9C12.3137 1 15 3.68629 15 7V9M1 8L1 11C1 12.1046 1.89543 13 3 13C4.10457 13 5 12.1046 5 11V10C5 8.89543 4.10457 8 3 8H1Z" stroke="white" stroke-width="2" stroke-linecap="round" stroke-linejoin="round"/>
</svg>
