<svg width="22" height="18" viewBox="0 0 22 18" fill="none" xmlns="http://www.w3.org/2000/svg">
<path d="M2.26367 0.263604C2.61514 -0.0878679 3.18564 -0.0878679 3.53711 0.263604L6.20508 2.93157C7.539 1.72999 9.30042 0.999932 11.2305 0.999932C14.7217 0.999968 17.6623 3.38819 18.4775 6.63958C20.3846 7.11953 21.8008 8.84611 21.8008 10.9003C21.8008 12.9666 20.3702 14.7029 18.4473 15.1738L19.5371 16.2636C19.8885 16.6151 19.8886 17.1856 19.5371 17.537C19.1857 17.8885 18.6151 17.8884 18.2637 17.537L16.0273 15.3007H3.90039C2.91984 15.3007 1.94246 14.6558 1.25977 13.8603C0.547361 13.0301 0.000108366 11.8661 0 10.5507C0 8.14221 1.85034 6.18814 4.19727 5.85149C4.41049 5.29647 4.68634 4.77288 5.0166 4.28997L2.26367 1.53704C1.9122 1.18557 1.9122 0.615076 2.26367 0.263604ZM11.2305 2.80071C9.8003 2.80071 8.48806 3.32938 7.48047 4.20696L16.7734 13.4999H17.4004C18.8333 13.4999 20 12.3333 20 10.9003C20 9.55104 18.9606 8.43507 17.6396 8.31634C17.2293 8.27936 16.8968 7.96838 16.832 7.56146C16.4008 4.85459 14.0539 2.80075 11.2305 2.80071ZM6.31934 5.59271C6.06668 6.01331 5.8653 6.46924 5.72461 6.95208C5.614 7.33172 5.26841 7.59496 4.87305 7.60052C3.13947 7.62427 1.80078 8.97799 1.80078 10.5507C1.80089 11.365 2.14353 12.1262 2.62598 12.6884C3.1382 13.2851 3.66099 13.4999 3.90039 13.4999H14.2266L6.31934 5.59271Z" fill="white"/>
</svg>
