<svg width="17" height="32" viewBox="0 0 17 32" fill="none" xmlns="http://www.w3.org/2000/svg">
<path d="M12.5326 14.2986C11.2974 13.616 9.98415 13.096 8.68394 12.5564C7.92982 12.2443 7.20821 11.8803 6.57111 11.3732C5.31641 10.372 5.55695 8.74677 7.02618 8.10317C7.44225 7.92114 7.87782 7.86263 8.31989 7.83663C10.0232 7.74561 11.6419 8.05766 13.1827 8.79878C13.9498 9.16934 14.2033 9.05232 14.4634 8.25269C14.7364 7.40756 14.9639 6.54942 15.2175 5.69779C15.3865 5.1257 15.1785 4.74864 14.6389 4.5081C13.6507 4.07253 12.6366 3.76048 11.5704 3.59146C10.1792 3.37692 10.1792 3.37042 10.1727 1.9727C10.1662 0.00288938 10.1662 0.00288935 8.18987 0.00288935C7.90382 0.00288935 7.61777 -0.00361168 7.33173 0.00288935C6.40858 0.0288935 6.25256 0.191419 6.22655 1.12107C6.21355 1.53713 6.22655 1.9532 6.22005 2.37576C6.21355 3.61096 6.20705 3.59146 5.02386 4.02052C2.16341 5.06069 0.395133 7.011 0.206604 10.1315C0.0375769 12.8944 1.4808 14.7602 3.74966 16.1189C5.14738 16.9576 6.69463 17.4516 8.17686 18.1083C8.75545 18.3618 9.30804 18.6543 9.78912 19.0574C11.2128 20.2341 10.9528 22.1909 9.26253 22.932C8.35889 23.3286 7.40324 23.4261 6.42159 23.3026C4.90685 23.114 3.45712 22.7175 2.0919 22.0089C1.29228 21.5928 1.05824 21.7033 0.785195 22.568C0.551158 23.3156 0.343125 24.0697 0.135092 24.8238C-0.144452 25.838 -0.0404359 26.0785 0.928217 26.5531C2.16341 27.1512 3.48312 27.4567 4.82883 27.6713C5.882 27.8403 5.91451 27.8858 5.92751 28.978C5.93401 29.472 5.93401 29.9726 5.94051 30.4667C5.94701 31.0908 6.24606 31.4549 6.88966 31.4679C7.61777 31.4809 8.35239 31.4809 9.0805 31.4614C9.6786 31.4484 9.98415 31.1233 9.98415 30.5187C9.98415 29.8426 10.0167 29.16 9.99065 28.4839C9.95814 27.7948 10.2572 27.4437 10.9203 27.2617C12.448 26.8456 13.7482 26.0265 14.7494 24.8043C17.5318 21.4238 16.4722 16.4765 12.5326 14.2986Z" fill="#EEEEEE"/>
</svg>
