<svg width="20" height="20" viewBox="0 0 20 20" fill="none" xmlns="http://www.w3.org/2000/svg">
<path d="M10 19C14.9706 19 19 14.9706 19 10C19 5.02944 14.9706 1 10 1C5.02944 1 1 5.02944 1 10C1 11.8841 1.57894 13.633 2.56863 15.0784L1 19L5.18497 17.605C6.57736 18.4884 8.22894 19 10 19Z" stroke="white" stroke-width="2" stroke-linecap="round" stroke-linejoin="round"/>
<path d="M14.3033 14.1819C14.6752 13.81 14.9471 13.3679 15.1225 12.8799L13.2426 10.9999L11.1213 11.7071C11.1213 11.7071 10.1346 11.4274 9.35354 10.6464C8.57249 9.86535 8.29288 8.87863 8.29288 8.87863L8.99998 6.75731L7.12008 4.8774C6.63198 5.05281 6.18991 5.32474 5.818 5.69665C4.06064 7.45401 4.53552 10.7781 6.87866 13.1213C9.22181 15.4644 12.5459 15.9393 14.3033 14.1819Z" stroke="white" stroke-width="2" stroke-linecap="round" stroke-linejoin="round"/>
</svg>
