<svg width="20" height="20" viewBox="0 0 20 20" fill="none" xmlns="http://www.w3.org/2000/svg">
<path d="M10 5C11.1046 5 12 4.10457 12 3C12 1.89543 11.1046 1 10 1C8.89543 1 8 1.89543 8 3C8 4.10457 8.89543 5 10 5ZM10 5V9M16 14C16 15.1046 15.1046 16 14 16C12.8954 16 12 15.1046 12 14C12 12.8954 12.8954 12 14 12C15.1046 12 16 12.8954 16 14ZM8 14C8 15.1046 7.10457 16 6 16C4.89543 16 4 15.1046 4 14C4 12.8954 4.89543 12 6 12C7.10457 12 8 12.8954 8 14ZM3 19H17C18.1046 19 19 18.1046 19 17V11C19 9.89543 18.1046 9 17 9H3C1.89543 9 1 9.89543 1 11V17C1 18.1046 1.89543 19 3 19Z" stroke="white" stroke-width="2" stroke-linejoin="round"/>
</svg>
