<svg width="21" height="21" viewBox="0 0 21 21" fill="none" xmlns="http://www.w3.org/2000/svg">
<path d="M12.9004 0C14.502 0 15.8008 1.29876 15.8008 2.90039V9.28906C18.0481 9.90331 19.7002 11.9582 19.7002 14.4004C19.7002 15.5386 19.3392 16.5914 18.7285 17.4551L20.5371 19.2637C20.8885 19.6151 20.8886 20.1857 20.5371 20.5371C20.1857 20.8886 19.6151 20.8885 19.2637 20.5371L17.4551 18.7285C16.5914 19.3392 15.5386 19.7002 14.4004 19.7002C11.9582 19.7002 9.90331 18.0481 9.28906 15.8008H2.90039C1.29876 15.8008 0 14.502 0 12.9004V2.90039C0 1.29876 1.29876 0 2.90039 0H12.9004ZM14.4004 10.7002C12.3569 10.7002 10.7002 12.3569 10.7002 14.4004C10.7002 16.4438 12.3569 18.1006 14.4004 18.1006C16.4438 18.1006 18.1006 16.4438 18.1006 14.4004C18.1006 12.3569 16.4438 10.7002 14.4004 10.7002ZM3.03711 12.5371C2.69748 12.8767 2.15418 12.887 1.80078 12.5703V12.9004C1.80078 13.5079 2.29288 14 2.90039 14H9.11719C9.23756 12.3888 10.0774 10.9795 11.3174 10.0908L10.9004 9.67383L9.53711 11.0371C9.18567 11.3885 8.61514 11.3885 8.26367 11.0371L6.40039 9.17383L3.03711 12.5371ZM2.90039 1.80078C2.29288 1.80078 1.80078 2.29288 1.80078 2.90039V11.2266L5.53223 7.49414C5.48857 7.49685 5.44473 7.50098 5.40039 7.50098C4.24068 7.50087 3.30078 6.56012 3.30078 5.40039C3.30089 4.24075 4.24075 3.30089 5.40039 3.30078C6.56012 3.30078 7.50087 4.24068 7.50098 5.40039C7.50098 6.07166 7.1847 6.66814 6.69434 7.05273C6.81913 7.09587 6.93751 7.16407 7.03711 7.26367L8.90039 9.12695L10.2637 7.76367L10.332 7.70215C10.6855 7.4137 11.2076 7.43412 11.5371 7.76367L13.0479 9.27441C13.3552 9.19355 13.6735 9.1406 14 9.11621V2.90039C14 2.29288 13.5079 1.80078 12.9004 1.80078H2.90039ZM5.40039 4.90039C5.1244 4.9005 4.9005 5.1244 4.90039 5.40039C4.90039 5.67647 5.12434 5.90028 5.40039 5.90039C5.67653 5.90039 5.90039 5.67653 5.90039 5.40039C5.90028 5.12434 5.67647 4.90039 5.40039 4.90039Z" fill="white"/>
</svg>
