<svg width="18" height="22" viewBox="0 0 18 22" fill="none" xmlns="http://www.w3.org/2000/svg">
<path d="M16 3C16 2.44772 15.5523 2 15 2H3C2.44772 2 2 2.44772 2 3V19C2 19.5523 2.44771 20 3 20H15C15.5523 20 16 19.5523 16 19V3ZM5.00977 16C5.56205 16 6.00977 16.4477 6.00977 17C6.00977 17.5523 5.56205 18 5.00977 18H5C4.44772 18 4 17.5523 4 17C4 16.4477 4.44772 16 5 16H5.00977ZM9.00977 16C9.56205 16 10.0098 16.4477 10.0098 17C10.0098 17.5523 9.56205 18 9.00977 18H9C8.44772 18 8 17.5523 8 17C8 16.4477 8.44772 16 9 16H9.00977ZM12 17V13C12 12.4477 12.4477 12 13 12C13.5523 12 14 12.4477 14 13V17C14 17.5523 13.5523 18 13 18C12.4477 18 12 17.5523 12 17ZM5.00977 12C5.56205 12 6.00977 12.4477 6.00977 13C6.00977 13.5523 5.56205 14 5.00977 14H5C4.44772 14 4 13.5523 4 13C4 12.4477 4.44772 12 5 12H5.00977ZM9.00977 12C9.56205 12 10.0098 12.4477 10.0098 13C10.0098 13.5523 9.56205 14 9.00977 14H9C8.44772 14 8 13.5523 8 13C8 12.4477 8.44772 12 9 12H9.00977ZM5.00977 8C5.56205 8 6.00977 8.44772 6.00977 9C6.00977 9.55229 5.56205 10 5.00977 10H5C4.44772 10 4 9.55229 4 9C4 8.44772 4.44772 8 5 8H5.00977ZM9.00977 8C9.56205 8 10.0098 8.44772 10.0098 9C10.0098 9.55229 9.56205 10 9.00977 10H9C8.44772 10 8 9.55229 8 9C8 8.44772 8.44772 8 9 8H9.00977ZM13.0098 8C13.5621 8 14.0098 8.44772 14.0098 9C14.0098 9.55229 13.5621 10 13.0098 10H13C12.4477 10 12 9.55229 12 9C12 8.44772 12.4477 8 13 8H13.0098ZM13 4C13.5523 4 14 4.44772 14 5C14 5.55228 13.5523 6 13 6H5C4.44772 6 4 5.55228 4 5C4 4.44772 4.44772 4 5 4H13ZM18 19C18 20.6569 16.6569 22 15 22H3C1.34315 22 0 20.6569 0 19V3C0 1.34315 1.34315 0 3 0H15C16.6569 0 18 1.34315 18 3V19Z" fill="white"/>
</svg>
