<?xml version="1.0" encoding="UTF-8"?>
<!DOCTYPE svg PUBLIC "-//W3C//DTD SVG 1.1//EN" "http://www.w3.org/Graphics/SVG/1.1/DTD/svg11.dtd">
<!-- Creator: CorelDRAW -->
<svg xmlns="http://www.w3.org/2000/svg" xml:space="preserve" width="24.4272mm" height="20.1787mm" version="1.1" style="shape-rendering:geometricPrecision; text-rendering:geometricPrecision; image-rendering:optimizeQuality; fill-rule:evenodd; clip-rule:evenodd"
viewBox="0 0 347.97 287.45"
 xmlns:xlink="http://www.w3.org/1999/xlink"
 xmlns:xodm="http://www.corel.com/coreldraw/odm/2003">
 <defs>
  <style type="text/css">
   <![CDATA[
    .fil0 {fill:#FF6500;fill-rule:nonzero}
   ]]>
  </style>
 </defs>
 <g id="Camada_x0020_1">
  <metadata id="CorelCorpID_0Corel-Layer"/>
  <path id="LUME_x0020_-_x0020_SÍMBOLO.cdr" class="fil0" d="M13.37 18.69c0,-1.56 -0.46,-4.86 1.76,-5.11 4.05,-0.47 31.74,-0.21 36.38,-0.21l71.44 0.01c2.53,0 3.71,0.07 3.71,2.05 0.31,6.01 0.08,16.71 0.08,23.19l0 140.14c0,5.78 0,5.78 5.94,5.78l112.93 0c5.7,0 5.72,0.01 5.72,5.54 0.01,26.3 0.01,52.6 0,78.91 -0,5.07 -0.03,5.08 -5.02,5.08l-227.95 -0c-4.97,0 -4.98,-0.01 -4.98,-5.07l0 -250.32zm328.31 -0.47c9.54,-12.26 8.23,-18.22 -4.02,-18.22l-103.11 -0c-12.83,0 -23.43,5.94 -33.36,18.69l-61.08 78.47 -0 -78.94c-0,-12.26 -5.96,-18.22 -18.2,-18.22l-103.11 -0c-12.83,0 -18.81,5.94 -18.81,18.69l0 250.32c0,12.41 6.01,18.44 18.36,18.44l227.96 0c7.05,-0 12.04,-1.97 15.02,-5.96l0 0 12.17 -15.6 -0 0c19.68,-25.27 39.35,-50.54 59.01,-75.82 3.23,-4.14 7.64,-9.82 6.45,-14.46 -1.15,-4.45 -6.51,-4.45 -10.82,-4.45l-105.49 -0 119.04 -152.94z"/>
 </g>
</svg>
