<?xml version="1.0"?>


<svg xmlns="http://www.w3.org/2000/svg" xml:space="preserve" width="92.2414mm" height="34.314mm" version="1.1" style="shape-rendering:geometricPrecision; text-rendering:geometricPrecision; image-rendering:optimizeQuality; fill-rule:evenodd; clip-rule:evenodd" viewBox="0 0 9223.08 3431.01" xmlns:xlink="http://www.w3.org/1999/xlink" xmlns:xodm="http://www.corel.com/coreldraw/odm/2003">
 <defs>
  
 </defs>
 <g id="Camada_x0020_1">
  <metadata id="CorelCorpID_0Corel-Layer"></metadata>
  <g id="_2390125897456">
   <path fill="#17170F" d="M-0 716.8c0,-387.97 0,-261.4 0,-649.39 0,-39 0.07,-39.03 39.96,-39.03 252.36,0 504.69,-0.05 757.06,0 35.33,0 35.47,0.14 35.47,35.61 0.03,557.94 0,601.31 0,1159.24 0,42.47 0.03,42.47 43.61,42.47 276.43,0 552.83,0 829.2,0 41.86,0.03 42.01,0.07 42.04,40.7 0.04,193.16 0.04,386.28 0,579.4 -0.03,37.25 -0.21,37.31 -36.91,37.31 -557.94,0.03 -1115.87,0.03 -1673.83,0 -36.47,0 -36.57,-0.11 -36.61,-37.2 0,-389.71 0,-779.38 0,-1169.11zm8566.51 162.41l-472.59 0c-5.2,0 -9.4,-4.19 -9.4,-9.39 0,-128.38 96.87,-240.45 224.95,-248.72 140.34,-9.12 257.03,102.05 257.03,240.45l0 17.66zm643.17 -194.88c-0.52,-2.61 -0.88,-5.3 -1.41,-7.92 -0.18,-0.84 -0.36,-1.66 -0.52,-2.51 -76.63,-377.06 -414.62,-659.8 -798.33,-672.09 -219.51,-7.07 -429.48,1.76 -623.29,115.72 -165.42,97.29 -296.56,249.97 -365.22,429.38 -11.95,31.2 -22.02,63.09 -30.11,95.48 -29.86,119.66 -47.05,244.5 -43.25,367.22 3.36,107.81 19.57,218.97 47.83,323.61 48.04,178.12 155.64,337.79 302.04,449.98 94.08,72.11 203.48,123.65 318.77,150.98 125.06,29.65 258.73,26.32 386.44,22.65 94.07,-2.72 187.43,-20.53 275.54,-53.7 172.21,-64.81 320.67,-186.73 418.35,-342.62 65.6,-104.67 107.61,-223.54 122.34,-346.19 2.01,-16.78 -10.74,-31.83 -27.56,-33.25l-388.55 -33c-10.64,-0.88 -20.98,3.89 -27.17,12.63l-24.33 34.3c-61.89,87.21 -162.23,139.04 -269.19,139.04l-106.09 0c-154.3,0 -280.31,-120.01 -290.49,-271.73 -0.34,-5.44 4.11,-10.06 9.55,-10.06l1073.9 0c19.79,0 36.64,-14.21 39.68,-33.74 11.73,-75.11 25.11,-208.29 1.05,-334.18zm-4337.36 -218.97c14.56,-49.13 26.95,-95.59 48.07,-138.76 100.11,-204.68 261.2,-316.89 491.72,-323.29 74.97,-2.12 149.05,4.49 221.85,23.46 161.54,42.11 267.59,144.06 323.48,299.95 13.87,38.79 25.64,78.25 32.24,119.09 1.32,8.02 1.38,17.17 9.41,23.38 11.06,-5.71 10.17,-17.13 13,-26.32 45.42,-146.52 123.64,-269.42 256.07,-352.48 88.42,-55.41 185.26,-84.2 289.77,-87.07 69.74,-1.9 138.94,2.33 207.13,17.85 187.93,42.78 303.66,161 357.43,343.36 28.33,96.08 39.64,194.58 41.4,294.58 7.21,407.72 1.09,815.49 3.14,1223.21 0.21,40.81 -0.07,40.84 -41.16,40.84 -230.11,0 -460.18,0 -690.25,0 -41.3,0 -41.37,-0.03 -41.41,-40.66 -0.39,-348.52 -0.61,-697.07 -1.39,-1045.63 -0.1,-43 -6.04,-85.59 -20.87,-126.37 -21.9,-60.08 -62.49,-89.27 -126.19,-91.6 -116.54,-4.27 -188.25,54.87 -215.41,177.76 -10.6,47.93 -15.38,96.58 -15.4,145.54 -0.22,314.21 -0.12,628.4 -0.15,942.63 0,38.23 -0.07,38.29 -37.85,38.32 -232.64,0 -465.3,0 -697.95,-0.03 -34.27,0 -34.48,-0.18 -34.52,-34.37 -0.14,-338.28 -0.21,-676.52 -0.35,-1014.76 0,-38.7 -3.74,-77.12 -10.74,-115.09 -22.97,-124.85 -128.98,-177.97 -244.38,-123.08 -55.67,26.5 -83.54,74.71 -101.22,130.14 -14.7,46.03 -21.57,93.72 -21.65,141.96 -0.45,324.51 -0.43,649.02 -0.57,973.55 -0.03,41.65 -0.06,41.68 -42.66,41.68 -230.08,0 -460.16,0 -690.24,-0.03 -37.37,0 -37.51,-0.06 -37.51,-36.11 0,-606.96 0,-1213.92 0,-1820.85 0,-37.1 0.1,-37.16 36.45,-37.16 237.81,-0.04 475.63,-0.04 713.43,0 36.21,0 36.01,0.1 36.37,37.37 1.3,126.23 -4.25,252.15 -14.84,377.92 -0.5,5.65 -2.38,11.87 5.72,21.09zm-1836.8 1022.22c-11.21,11.73 -10.81,25.18 -14.35,36.98 -63.66,211.92 -192.38,361.56 -413.02,414.05 -143.7,34.2 -286.81,20.41 -423.03,-39.81 -110.28,-48.78 -182.27,-134.98 -227.17,-244.7 -40.73,-99.56 -59.16,-204.4 -61.88,-311.32 -10.89,-427.37 -1.91,-854.84 -5.16,-1282.25 -0.18,-24.94 8.34,-32.11 32.75,-32 235.19,0.74 470.4,0.88 705.59,-0.14 27.02,-0.14 32.78,9.07 32.71,34.08 -0.7,318.47 -0.95,636.93 0,955.39 0.19,62.44 1.03,125.33 15.13,186.83 13.85,60.34 40.77,112.12 107.46,124.39 100.01,18.37 179,-10.56 221.95,-112.09 25.54,-60.37 32.11,-124.64 32.29,-189.09 0.84,-319.32 0.46,-638.63 0.53,-957.97 0.03,-40.91 0.07,-40.98 40.55,-40.98 231.78,0 463.55,0 695.32,0.04 34.37,0 34.59,0.14 34.59,34.08 0.02,608.6 0.02,1217.22 0,1825.81 0,34.09 -0.22,34.23 -34.45,34.23 -234.35,0.03 -468.7,-0.35 -703.02,0.56 -26.17,0.12 -33.73,-7.84 -33.52,-33.62 1.16,-124.5 0.56,-248.95 0.46,-373.43 0,-8.95 1.69,-18.38 -3.71,-29.04z"></path>
   <polygon fill="#FF6500" points="1747.37,3431.01 0.01,3431.01 0.01,2468.85 1747.37,2468.85 "></polygon>
   <g>
    <path fill="#17170F" d="M8497.23 3261.96l0 -104.99c80.98,26.25 163.08,39.26 245.85,39.26 109.93,0 164.88,-32.75 164.88,-98.48 0,-61.23 -38.36,-91.97 -114.85,-91.97l-98.71 0c-148.95,0 -223.42,-67.97 -223.42,-203.68 0,-131.46 95.78,-197.2 287.14,-197.2 82.33,0 164.2,11 245.18,32.76l0 105.21c-80.98,-26.24 -162.85,-39.48 -245.18,-39.48 -114.63,0 -172.06,32.98 -172.06,98.71 0,61.23 36.12,91.97 108.35,91.97l98.71 0c157.7,0 236.43,67.96 236.43,203.68 0,131.45 -95.57,197.19 -286.47,197.19 -82.77,0 -164.87,-11 -245.85,-32.98z"></path>
    <path fill="#17170F" d="M7554.19 3086.54c0,-141.55 93.31,-212.22 279.95,-212.22 60.12,0 120.02,4.49 180.13,13.24l0 -65.06c0,-79.41 -62.13,-119.11 -185.96,-119.11 -71.11,0 -143.79,10.99 -218.26,32.98l0 -98.71c74.47,-21.76 147.15,-32.76 218.26,-32.76 205.04,0 307.54,71.34 307.54,214.24l0 475.8 -68.41 0 -41.96 -68.42c-68.86,45.53 -143.79,68.42 -224.76,68.42 -164.44,0 -246.53,-69.54 -246.53,-208.4zm279.95 -113.74c-105.65,0 -158.37,37.24 -158.37,111.72 0,74.47 41.73,111.71 124.96,111.71 84.12,0 155.22,-22.21 213.55,-66.84l0 -143.34c-60.11,-8.75 -120.01,-13.24 -180.13,-13.24z"></path>
    <path fill="#17170F" d="M6230.02 3294.93l0 -690.03 82.1 0 20.42 86.59c65.94,-57.64 138.18,-86.59 216.02,-86.59 100.05,0 168.02,31.42 204.59,94.67 74.7,-63.25 150.75,-94.67 227.91,-94.67 158.59,0 238,87.27 238,262.25l0 427.78 -121.58 0 0 -434.52c0,-102.97 -43.52,-154.33 -130.12,-154.33 -64.83,0 -125.62,29.83 -182.14,89.28l0 499.57 -121.59 0 0 -432.5c0,-104.31 -42.86,-156.35 -128.77,-156.35 -68.42,0 -129.44,29.83 -183.5,89.28l0 499.57 -121.36 0z"></path>
    <path fill="#17170F" d="M5600.81 2604.9c196.28,0 294.54,96.91 294.54,291.19 0,27.59 -2.02,57.19 -6.06,88.6l-484.31 0c0,141.1 82.33,211.54 247.2,211.54 78.29,0 148.05,-8.75 208.85,-26.25l0 98.71c-60.79,17.5 -134.81,26.25 -222.07,26.25 -237.11,0 -355.55,-117.55 -355.55,-352.87 0,-224.77 105.88,-337.16 317.41,-337.16zm-195.84 278.62l373.28 0c-2.69,-120.92 -61.69,-181.48 -177.44,-181.48 -122.71,0 -187.99,60.56 -195.84,181.48z"></path>
    <path fill="#17170F" d="M4701.73 2493.19l76.04 0 26.48 111.71 186.64 0 0 98.49 -167.8 0 0 396.37c0,64.38 28.04,96.46 83.67,96.46l84.13 0 0 98.71 -115.76 0c-115.76,0 -173.4,-61.91 -173.4,-185.97l0 -615.77z"></path>
    <path fill="#17170F" d="M3834.06 3261.96l0 -104.99c80.98,26.25 163.08,39.26 245.85,39.26 109.93,0 164.88,-32.75 164.88,-98.48 0,-61.23 -38.36,-91.97 -114.85,-91.97l-98.71 0c-148.95,0 -223.42,-67.97 -223.42,-203.68 0,-131.46 95.78,-197.2 287.14,-197.2 82.32,0 164.2,11 245.18,32.76l0 105.21c-80.98,-26.24 -162.86,-39.48 -245.18,-39.48 -114.64,0 -172.06,32.98 -172.06,98.71 0,61.23 36.12,91.97 108.35,91.97l98.71 0c157.7,0 236.43,67.96 236.43,203.68 0,131.45 -95.57,197.19 -286.47,197.19 -82.77,0 -164.87,-11 -245.85,-32.98z"></path>
    <polygon fill="#17170F" points="3459.45,2604.9 3459.45,3294.93 3337.87,3294.93 3337.87,2604.9 "></polygon>
    <path fill="#17170F" d="M2457.19 3261.96l0 -104.99c80.98,26.25 163.08,39.26 245.85,39.26 109.93,0 164.88,-32.75 164.88,-98.48 0,-61.23 -38.36,-91.97 -114.85,-91.97l-98.71 0c-148.95,0 -223.42,-67.97 -223.42,-203.68 0,-131.46 95.78,-197.2 287.14,-197.2 82.33,0 164.2,11 245.18,32.76l0 105.21c-80.98,-26.24 -162.85,-39.48 -245.18,-39.48 -114.63,0 -172.06,32.98 -172.06,98.71 0,61.23 36.12,91.97 108.35,91.97l98.71 0c157.7,0 236.43,67.96 236.43,203.68 0,131.45 -95.57,197.19 -286.47,197.19 -82.77,0 -164.87,-11 -245.85,-32.98z"></path>
   </g>
  </g>
 </g>
</svg>