<?xml version="1.0" encoding="UTF-8"?>
<!DOCTYPE svg PUBLIC "-//W3C//DTD SVG 1.1//EN" "http://www.w3.org/Graphics/SVG/1.1/DTD/svg11.dtd">
<!-- Creator: CorelDRAW -->
<svg xmlns="http://www.w3.org/2000/svg" xml:space="preserve" width="29.4332mm" height="29.33mm" version="1.1" style="shape-rendering:geometricPrecision; text-rendering:geometricPrecision; image-rendering:optimizeQuality; fill-rule:evenodd; clip-rule:evenodd"
viewBox="0 0 522.94 521.11"
 xmlns:xlink="http://www.w3.org/1999/xlink"
 xmlns:xodm="http://www.corel.com/coreldraw/odm/2003">
 <defs>
  <style type="text/css">
   <![CDATA[
    .fil0 {fill:black}
    .fil1 {fill:#FF6500;fill-rule:nonzero}
   ]]>
  </style>
 </defs>
 <g id="Camada_x0020_1">
  <metadata id="CorelCorpID_0Corel-Layer"/>
  <path class="fil0" d="M78.26 272.42c1.47,-4.95 2.72,-9.63 4.84,-13.97 10.08,-20.61 26.3,-31.91 49.52,-32.56 7.55,-0.21 15.01,0.45 22.34,2.36 16.27,4.24 26.95,14.51 32.57,30.21 1.4,3.91 2.59,7.88 3.25,11.99 0.13,0.81 0.14,1.73 0.95,2.36 1.11,-0.58 1.02,-1.73 1.31,-2.65 4.57,-14.76 12.45,-27.13 25.79,-35.49 8.9,-5.58 18.66,-8.48 29.18,-8.77 7.03,-0.19 13.99,0.23 20.86,1.8 18.93,4.31 30.58,16.21 35.99,34.58 2.86,9.68 3.99,19.6 4.17,29.67 0.73,41.06 0.11,82.12 0.32,123.18 0.02,4.11 -0.01,4.11 -4.15,4.11 -23.17,0 -46.34,0 -69.51,0 -4.16,0 -4.17,-0 -4.17,-4.09 -0.04,-35.1 -0.06,-70.2 -0.14,-105.3 -0.01,-4.33 -0.61,-8.62 -2.1,-12.72 -2.2,-6.05 -6.29,-8.99 -12.71,-9.22 -11.74,-0.43 -18.96,5.53 -21.69,17.9 -1.07,4.83 -1.55,9.73 -1.55,14.66 -0.02,31.64 -0.01,63.28 -0.01,94.93 0,3.85 -0.01,3.86 -3.81,3.86 -23.43,0 -46.86,0 -70.29,0 -3.45,0 -3.47,-0.02 -3.48,-3.46 -0.02,-34.07 -0.02,-68.13 -0.04,-102.19 0,-3.89 -0.38,-7.76 -1.08,-11.59 -2.31,-12.57 -12.99,-17.92 -24.61,-12.39 -5.61,2.67 -8.41,7.52 -10.19,13.11 -1.48,4.64 -2.17,9.44 -2.18,14.3 -0.05,32.68 -0.04,65.36 -0.06,98.04 -0,4.19 -0.01,4.2 -4.3,4.2 -23.17,0 -46.34,0 -69.51,-0 -3.76,0 -3.78,-0.01 -3.78,-3.64 0,-61.12 0,-122.25 0,-183.37 0,-3.73 0.01,-3.74 3.67,-3.74 23.95,-0 47.9,-0 71.85,0 3.65,0 3.62,0.01 3.66,3.76 0.13,12.71 -0.43,25.39 -1.49,38.06 -0.05,0.57 -0.24,1.19 0.57,2.12z"/>
  <path class="fil0" d="M305.68 146.95c-1.12,1.18 -1.09,2.54 -1.44,3.72 -6.41,21.34 -19.37,36.41 -41.59,41.7 -14.47,3.44 -28.88,2.06 -42.6,-4.01 -11.1,-4.91 -18.36,-13.59 -22.88,-24.64 -4.1,-10.02 -5.96,-20.58 -6.23,-31.35 -1.1,-43.04 -0.19,-86.09 -0.52,-129.13 -0.02,-2.51 0.84,-3.23 3.3,-3.22 23.68,0.07 47.37,0.09 71.05,-0.01 2.72,-0.01 3.3,0.92 3.29,3.43 -0.07,32.07 -0.1,64.14 0,96.21 0.02,6.29 0.1,12.63 1.52,18.82 1.4,6.07 4.1,11.29 10.82,12.53 10.07,1.85 18.03,-1.06 22.35,-11.29 2.57,-6.08 3.24,-12.55 3.25,-19.04 0.08,-32.15 0.04,-64.31 0.05,-96.47 0,-4.12 0.01,-4.13 4.08,-4.13 23.34,0 46.68,0 70.02,0 3.46,0 3.48,0.01 3.48,3.43 0,61.29 0,122.58 0,183.86 0,3.43 -0.02,3.45 -3.47,3.45 -23.6,0 -47.2,-0.04 -70.8,0.06 -2.63,0.01 -3.4,-0.79 -3.37,-3.39 0.12,-12.54 0.06,-25.07 0.04,-37.6 0,-0.9 0.17,-1.85 -0.37,-2.92z"/>
  <path class="fil0" d="M-0 69.33c0,-39.07 0,-26.32 0,-65.39 0,-3.93 0.01,-3.93 4.02,-3.93 25.42,0 50.82,-0 76.24,0 3.56,0 3.57,0.01 3.57,3.59 0,56.19 0,60.55 0,116.74 0,4.27 0,4.27 4.39,4.27 27.84,0 55.67,0 83.5,0 4.22,0.01 4.23,0.01 4.23,4.1 0.01,19.45 0.01,38.9 0,58.35 -0,3.75 -0.02,3.76 -3.72,3.76 -56.19,0 -112.37,0 -168.56,-0 -3.67,0 -3.68,-0.01 -3.68,-3.75 0,-39.25 0,-78.49 0,-117.73z"/>
  <path class="fil0" d="M450.27 314.1l-47.59 0c-0.52,0 -0.95,-0.42 -0.95,-0.95 0,-12.93 9.75,-24.21 22.65,-25.05 14.13,-0.92 25.88,10.28 25.88,24.21l0 1.78zm64.77 -19.63c-0.06,-0.26 -0.09,-0.53 -0.14,-0.8 -0.02,-0.09 -0.04,-0.17 -0.05,-0.25 -7.72,-37.97 -41.75,-66.45 -80.39,-67.68 -22.11,-0.71 -43.25,0.18 -62.77,11.66 -16.66,9.8 -29.86,25.17 -36.78,43.24 -1.2,3.14 -2.22,6.35 -3.03,9.62 -3.01,12.05 -4.74,24.62 -4.35,36.98 0.34,10.86 1.97,22.05 4.81,32.58 4.84,17.94 15.68,34.02 30.42,45.32 9.48,7.26 20.49,12.45 32.1,15.2 12.59,2.98 26.05,2.65 38.91,2.28 9.48,-0.27 18.88,-2.07 27.75,-5.41 17.34,-6.53 32.29,-18.8 42.13,-34.5 6.6,-10.54 10.83,-22.51 12.32,-34.86 0.2,-1.69 -1.08,-3.2 -2.77,-3.35l-39.13 -3.32c-1.07,-0.09 -2.11,0.39 -2.73,1.27l-2.45 3.46c-6.23,8.78 -16.34,14 -27.11,14l-10.68 0c-15.54,0 -28.23,-12.09 -29.25,-27.36 -0.03,-0.55 0.42,-1.01 0.96,-1.01l108.14 0c1.99,0 3.69,-1.43 3.99,-3.4 1.18,-7.56 2.54,-20.97 0.11,-33.65z"/>
  <polygon class="fil1" points="522.94,191.01 426.05,191.01 426.05,94.12 522.94,94.12 "/>
  <path class="fil0" d="M480.75 518.49l0 -8.32c6.42,2.08 12.92,3.11 19.48,3.11 8.71,0 13.07,-2.6 13.07,-7.81 0,-4.85 -3.04,-7.29 -9.1,-7.29l-7.82 0c-11.8,0 -17.71,-5.39 -17.71,-16.14 0,-10.42 7.59,-15.63 22.76,-15.63 6.52,0 13.01,0.87 19.43,2.6l0 8.34c-6.42,-2.08 -12.91,-3.13 -19.43,-3.13 -9.08,0 -13.64,2.61 -13.64,7.82 0,4.85 2.86,7.29 8.59,7.29l7.82 0c12.5,0 18.74,5.39 18.74,16.14 0,10.42 -7.58,15.63 -22.7,15.63 -6.56,0 -13.07,-0.87 -19.48,-2.61z"/>
  <path class="fil0" d="M406.01 504.59c0,-11.22 7.39,-16.82 22.19,-16.82 4.76,0 9.51,0.36 14.28,1.05l0 -5.16c0,-6.29 -4.93,-9.44 -14.74,-9.44 -5.63,0 -11.4,0.87 -17.3,2.61l0 -7.82c5.9,-1.73 11.66,-2.6 17.3,-2.6 16.25,0 24.37,5.65 24.37,16.98l0 37.71 -5.42 0 -3.33 -5.42c-5.46,3.61 -11.39,5.42 -17.81,5.42 -13.03,0 -19.54,-5.51 -19.54,-16.52zm22.19 -9.01c-8.37,0 -12.55,2.95 -12.55,8.85 0,5.9 3.31,8.85 9.9,8.85 6.67,0 12.3,-1.76 16.92,-5.3l0 -11.36c-4.77,-0.69 -9.51,-1.05 -14.28,-1.05z"/>
  <path class="fil0" d="M301.08 521.11l0 -54.69 6.5 0 1.62 6.86c5.22,-4.57 10.95,-6.86 17.12,-6.86 7.93,0 13.31,2.49 16.21,7.5 5.92,-5.01 11.95,-7.5 18.06,-7.5 12.57,0 18.86,6.91 18.86,20.78l0 33.9 -9.63 0 0 -34.44c0,-8.16 -3.45,-12.23 -10.31,-12.23 -5.14,0 -9.96,2.36 -14.43,7.07l0 39.59 -9.64 0 0 -34.28c0,-8.27 -3.4,-12.39 -10.21,-12.39 -5.42,0 -10.26,2.36 -14.54,7.07l0 39.59 -9.62 0z"/>
  <path class="fil0" d="M251.21 466.42c15.55,0 23.34,7.68 23.34,23.08 0,2.19 -0.16,4.53 -0.48,7.02l-38.38 0c0,11.18 6.52,16.76 19.59,16.76 6.21,0 11.73,-0.69 16.55,-2.08l0 7.82c-4.82,1.39 -10.68,2.08 -17.6,2.08 -18.79,0 -28.18,-9.32 -28.18,-27.97 0,-17.81 8.39,-26.72 25.15,-26.72zm-15.52 22.08l29.58 0c-0.21,-9.58 -4.89,-14.38 -14.06,-14.38 -9.72,0 -14.9,4.8 -15.52,14.38z"/>
  <path class="fil0" d="M179.96 457.57l6.03 0 2.1 8.85 14.79 0 0 7.81 -13.3 0 0 31.41c0,5.1 2.22,7.65 6.63,7.65l6.67 0 0 7.82 -9.17 0c-9.17,0 -13.74,-4.91 -13.74,-14.74l0 -48.8z"/>
  <path class="fil0" d="M111.2 518.49l0 -8.32c6.42,2.08 12.93,3.11 19.48,3.11 8.71,0 13.07,-2.6 13.07,-7.81 0,-4.85 -3.04,-7.29 -9.1,-7.29l-7.82 0c-11.8,0 -17.7,-5.39 -17.7,-16.14 0,-10.42 7.59,-15.63 22.76,-15.63 6.52,0 13.01,0.87 19.43,2.6l0 8.34c-6.42,-2.08 -12.91,-3.13 -19.43,-3.13 -9.09,0 -13.64,2.61 -13.64,7.82 0,4.85 2.86,7.29 8.59,7.29l7.82 0c12.5,0 18.74,5.39 18.74,16.14 0,10.42 -7.57,15.63 -22.7,15.63 -6.56,0 -13.07,-0.87 -19.48,-2.61z"/>
  <polygon class="fil0" points="81.51,466.42 81.51,521.11 71.87,521.11 71.87,466.42 "/>
  <path class="fil0" d="M2.08 518.49l0 -8.32c6.42,2.08 12.92,3.11 19.49,3.11 8.71,0 13.07,-2.6 13.07,-7.81 0,-4.85 -3.04,-7.29 -9.1,-7.29l-7.82 0c-11.81,0 -17.71,-5.39 -17.71,-16.14 0,-10.42 7.59,-15.63 22.76,-15.63 6.52,0 13.01,0.87 19.43,2.6l0 8.34c-6.42,-2.08 -12.9,-3.13 -19.43,-3.13 -9.09,0 -13.64,2.61 -13.64,7.82 0,4.85 2.86,7.29 8.59,7.29l7.82 0c12.5,0 18.74,5.39 18.74,16.14 0,10.42 -7.57,15.63 -22.7,15.63 -6.56,0 -13.07,-0.87 -19.49,-2.61z"/>
 </g>
</svg>
